<?xml version="1.0" encoding="utf-8"?>
<!-- Generator: Adobe Illustrator 23.0.1, SVG Export Plug-In . SVG Version: 6.00 Build 0)  -->
<svg version="1.1" xmlns="http://www.w3.org/2000/svg" xmlns:xlink="http://www.w3.org/1999/xlink" x="0px" y="0px"
	 viewBox="0 0 133 190.9" style="enable-background:new 0 0 133 190.9;" xml:space="preserve">
<g id="Layer_1">
	<g>
		<path d="M93.4,68.3c1.2,0.1,2.1,0.6,2.8,1.4V4.5c0-0.9-0.2-1.6-0.6-2.2c-0.4-0.6-1.2-1-2.3-1.4c-1.2-0.3-2.9-0.6-5.2-0.7
			c-2.3-0.1-5.3-0.2-9-0.2c-3,0-5.5,0-7.4,0.1c-1.9,0.1-3.4,0.1-4.6,0.3S64.9,0.7,64.2,1c-0.7,0.2-1.3,0.6-1.8,1L21.6,28.3
			c-1.2,0.8-2.1,1.5-2.8,2.2c-0.7,0.7-1.2,1.6-1.6,2.6c-0.4,1.1-0.6,2.4-0.7,3.9c-0.1,1.5-0.1,3.4-0.1,5.8c0,3.7,0.1,6.6,0.4,8.6
			s0.9,3.5,1.7,4.3c0.8,0.8,2,1.1,3.4,0.9c1.4-0.2,3.2-0.9,5.5-2l30.5-16.8v11.5c1.2-0.5,2.6-0.5,4,0.2
			C73.2,55.1,86.3,57.9,93.4,68.3z"/>
		<path d="M132.6,169.1c-0.2-1.9-0.6-3.4-1.2-4.6c-0.5-1.2-1.2-2-1.9-2.6c-0.7-0.5-1.5-0.8-2.4-0.8H96.2v-22.9
			c-0.6,0.6-1.4,1.1-2.4,1.3c-0.3,1-1,1.9-1.9,2.4c-0.7,1.1-1.8,2-3.4,2.1c-0.3,0.3-0.7,0.6-1.2,0.9c-1.5,0.8-2.9,1.4-4.4,2.1
			c-0.7,1.3-2.1,2.3-4,2.4c-0.8,1.1-2,1.9-3.8,1.9c-0.5,0-0.9-0.1-1.3-0.2c-0.6,1.5-2,2.7-4.2,2.8c-0.6,0.7-1.5,1.2-2.5,1.4
			c-0.8,0.7-1.9,1.2-3.3,1.2c-0.2,0-0.4,0-0.6,0c-0.8,0.9-2,1.5-3.6,1.5c-0.7,0-1.4-0.1-1.9-0.4v3.5H22.5c-0.9,0-1.7,0.3-2.3,0.8
			c-0.7,0.5-1.3,1.4-1.8,2.6c-0.5,1.2-0.9,2.7-1.2,4.6c-0.2,1.9-0.4,4.3-0.4,7.1c0,2.7,0.1,5.1,0.4,7s0.7,3.4,1.2,4.5
			c0.5,1.1,1.1,1.9,1.8,2.4c0.7,0.5,1.4,0.7,2.2,0.7h104.6c0.9,0,1.7-0.2,2.3-0.7c0.7-0.5,1.3-1.3,1.8-2.4c0.5-1.1,1-2.6,1.2-4.5
			s0.4-4.2,0.4-7C133,173.4,132.8,171,132.6,169.1z"/>
	</g>
</g>
<g id="Layer_3">
	<path d="M0,103.5c0,31.3,24.5,56.7,54.7,56.7s54.7-25.4,54.7-56.7S84.8,46.8,54.7,46.8S0,72.2,0,103.5z M98.7,103.5
		c0,25.3-19.7,45.7-44.1,45.7s-44.1-20.5-44.1-45.7s19.7-45.7,44.1-45.7S98.7,78.2,98.7,103.5z M82.9,98.9v9.1
		c0,1.5-1.2,2.7-2.6,2.7H54.7v15.3c0,2.4-2.8,3.7-4.5,1.9l-21.8-22.6c-1-1.1-1-2.8,0-3.9l21.8-22.6c1.7-1.7,4.5-0.5,4.5,1.9v15.3
		h25.6C81.7,96.2,82.9,97.4,82.9,98.9z"/>
</g>
</svg>
