<?xml version="1.0" encoding="utf-8"?>
<!-- Generator: Adobe Illustrator 23.0.1, SVG Export Plug-In . SVG Version: 6.00 Build 0)  -->
<svg version="1.1" id="Layer_1" xmlns="http://www.w3.org/2000/svg" xmlns:xlink="http://www.w3.org/1999/xlink" x="0px" y="0px"
	 viewBox="0 0 140.1 190.8" style="enable-background:new 0 0 140.1 190.8;" xml:space="preserve">
<g>
	<g>
		<path d="M41.3,64.1c0.1,0,0.3-0.1,0.4-0.1c2.9-0.4,4.9-2.8,7.3-4.5c2.1-1.5,4.4-2.6,6.8-3.6c0.2-0.1,0.3-0.1,0.5-0.2
			c2.3-1.5,4.6-3,7-4.5c4.8-2.9,10.7-6.5,16.5-5.5V4.5c0-0.9-0.2-1.6-0.6-2.2c-0.4-0.6-1.2-1-2.3-1.4c-1.2-0.3-2.9-0.6-5.2-0.7
			c-2.3-0.1-5.3-0.2-9-0.2c-3,0-5.5,0-7.4,0.1s-3.4,0.1-4.6,0.3S48.6,0.7,47.8,1c-0.7,0.2-1.3,0.6-1.8,1L5.2,28.3
			c-1.2,0.8-2.1,1.5-2.8,2.2c-0.7,0.7-1.2,1.6-1.6,2.6c-0.4,1.1-0.6,2.4-0.7,3.9S0,40.4,0,42.8c0,3.7,0.1,6.6,0.4,8.6
			s0.9,3.5,1.7,4.3c0.8,0.8,2,1.1,3.4,0.9s3.2-0.9,5.5-2l30.5-16.8v26.3H41.3z"/>
		<path d="M116.1,169.1c-0.2-1.9-0.6-3.4-1.2-4.6c-0.5-1.2-1.2-2-1.9-2.6c-0.7-0.5-1.5-0.8-2.4-0.8H79.7v-6.2
			c-6.5-1-12.8-3.8-18.9-5.9c-7-2.4-13.8-5.9-19.4-10.8v22.9H6c-0.9,0-1.7,0.3-2.3,0.8c-0.7,0.5-1.3,1.4-1.8,2.6
			c-0.5,1.2-0.9,2.7-1.2,4.6c-0.2,1.9-0.4,4.3-0.4,7.1c0,2.7,0.1,5.1,0.4,7s0.7,3.4,1.2,4.5s1.1,1.9,1.8,2.4
			c0.7,0.5,1.4,0.7,2.2,0.7h104.6c0.9,0,1.7-0.2,2.3-0.7c0.7-0.5,1.3-1.3,1.8-2.4c0.5-1.1,1-2.6,1.2-4.5s0.4-4.2,0.4-7
			C116.5,173.4,116.4,171,116.1,169.1z"/>
	</g>
</g>
<g>
	<path d="M140.1,101.7c0-31.5-25.6-57.1-57.1-57.1s-57.1,25.6-57.1,57.1s25.6,57.1,57.1,57.1S140.1,133.3,140.1,101.7z M36.9,101.7
		c0-25.4,20.6-46,46-46s46,20.6,46,46s-20.6,46-46,46S36.9,127.2,36.9,101.7z M53.5,106.3v-9.2c0-1.5,1.2-2.8,2.8-2.8H83V78.9
		c0-2.5,3-3.7,4.7-2l22.8,22.8c1.1,1.1,1.1,2.8,0,3.9l-22.8,22.8c-1.7,1.7-4.7,0.5-4.7-2v-15.3H56.3
		C54.7,109.1,53.5,107.8,53.5,106.3z"/>
</g>
</svg>
