<?xml version="1.0" encoding="utf-8"?>
<!-- Generator: Adobe Illustrator 23.0.1, SVG Export Plug-In . SVG Version: 6.00 Build 0)  -->
<svg version="1.1" xmlns="http://www.w3.org/2000/svg" xmlns:xlink="http://www.w3.org/1999/xlink" x="0px" y="0px"
	 viewBox="0 0 251 304" style="enable-background:new 0 0 251 304;" xml:space="preserve">
<g id="svg2064" xmlns:cc="http://web.resource.org/cc/" xmlns:dc="http://purl.org/dc/elements/1.1/" xmlns:inkscape="http://www.inkscape.org/namespaces/inkscape" xmlns:rdf="http://www.w3.org/1999/02/22-rdf-syntax-ns#" xmlns:sodipodi="http://sodipodi.sourceforge.net/DTD/sodipodi-0.dtd" xmlns:svg="http://www.w3.org/2000/svg">
	
		<sodipodi:namedview  bordercolor="#666666" borderopacity="1.0" gridtolerance="10.0" guidetolerance="10.0" id="base" inkscape:current-layer="svg2064" inkscape:cx="125.5" inkscape:cy="152.02499" inkscape:pageopacity="0.0" inkscape:pageshadow="2" inkscape:window-height="753" inkscape:window-width="1024" inkscape:window-x="0" inkscape:window-y="0" inkscape:zoom="1.2432166" objecttolerance="10.0" pagecolor="#ffffff">
		</sodipodi:namedview>
	<g id="g2170">
		<path id="path1919" d="M126.9,32.4c-12.4,0-22.4,9.6-22.4,21.5c0,11.9,10,21.5,22.4,21.5s22.4-9.6,22.4-21.5
			C149.3,42,139.3,32.4,126.9,32.4z M126.4,42.8c6,0,10.9,4.7,10.9,10.4c0,5.8-4.9,10.4-10.9,10.4s-10.9-4.7-10.9-10.4
			C115.5,47.5,120.4,42.8,126.4,42.8z"/>
		<path d="M233,187.6c-2.1-9.7-5.7-17.9-8.4-19.3c-1.7-0.9-2.3-0.6-3.7,1.7c-2.5,4.1-6,7.3-12.8,11.6c-8.1,5.2-13,10.6-14.5,16
			c-1.5,5.2-0.8,7.1,2,5.6c3-1.6,5-1.2,6.1,1.4c1.3,2.9,0,5.3-5.5,9.1c3.4,0.6,6.5,2.4,8.6,5.5c0.6,0.9,1.1,1.8,1.5,2.9
			c7.8-6,12.2-6.2,16.7-1.3l3.2,3.5l2.1-2.3c3.7-4.1,5.1-8.2,5.8-17.4C234.6,197.5,234.4,193.7,233,187.6z"/>
		<path d="M154.6,232.3c-4.5,1.2-8.4,1.8-11.4,1.8c-4.9,0-9.4-1.9-10.2-4.2c-0.4-1.1-0.4-14.2,0-29.2c0.3-14.9,0.9-42.7,1.2-61.6
			c0.3-19,0.7-34.7,0.9-35c0.2-0.3,10.5-0.5,22.9-0.3c25.8,0.2,24.4,0.7,24.2-8.6l-0.1-5.5c-15.4-1.1-31.1,0.9-46.5-1.1
			c-0.3-0.3-0.6-3.9-0.7-7.9l-0.1-9.2l-16.2-0.3c-1.1,0,0,2.1,0,9.1v9.1L96.7,89c-17.2-0.2-22.2,0-23.5,1c-2,1.7-2.4,13.1-0.4,13.1
			l44.8-0.1c0.1,10.7,0.2,21.4,0.1,32.1c-0.5,22.1-0.9,44.2-1.1,66.2c-0.1,12-0.5,23.4-1,25.5c-1.8,7.8-6.7,8.8-21.8,4.7
			c-15.7-4.3-35.3-13.9-38.6-18.9c-2.6-4-3-7.4-1.1-9.5c0.9-1,2.3-1.7,3.1-1.4c0.9,0.3,1.7-0.4,2.3-1.8c1.9-5-4.4-12.5-16.9-19.9
			c-3-1.8-8-5.7-11-8.6c-3.2-3.1-6-5-6.6-4.6c-2,1.3-6.1,10.6-7.4,16.7c-2.5,12.3,0.7,30.4,6.7,37.5c3.2,3.8,4.9,3.8,5.7,0.1
			c1.3-6.5,9.4-4.6,18.2,4.2c7,7,20.2,17.1,26,19.9c2.2,1,5.4,2.7,7,3.8c1.7,1,6.6,3.1,11,4.6c9.2,3.2,20,8.7,24.3,12.6
			c1.6,1.5,4.1,3.4,5.4,4.3c2.4,1.6,2.6,1.5,4.2-1c3.4-5.2,9.3-9.7,18.1-14c3.1-1.5,6.1-2.8,8.2-3.6
			C152.4,245.4,153.2,238.8,154.6,232.3z"/>
	</g>
</g>
<g id="arrow">
	<path d="M222.5,245.6c0,21.7-17.6,39.2-39.2,39.2S144,267.3,144,245.6s17.6-39.2,39.2-39.2S222.5,224,222.5,245.6z M199.8,241.1
		L188.3,253v-28.9c0-2.1-1.7-3.8-3.8-3.8H182c-2.1,0-3.8,1.7-3.8,3.8V253l-11.5-11.9c-1.5-1.5-3.9-1.6-5.4-0.1l-1.7,1.7
		c-1.5,1.5-1.5,3.9,0,5.4l21,21c1.5,1.5,3.9,1.5,5.4,0l21-21c1.5-1.5,1.5-3.9,0-5.4l-1.7-1.7C203.7,239.5,201.3,239.5,199.8,241.1
		L199.8,241.1z"/>
</g>
</svg>
