<?xml version="1.0" encoding="utf-8"?>
<!-- Generator: Adobe Illustrator 23.0.1, SVG Export Plug-In . SVG Version: 6.00 Build 0)  -->
<svg version="1.1" id="Layer_1" xmlns="http://www.w3.org/2000/svg" xmlns:xlink="http://www.w3.org/1999/xlink" x="0px" y="0px"
	 viewBox="0 0 359.4 443" style="enable-background:new 0 0 359.4 443;" xml:space="preserve">
<g>
	<path d="M280,38h-83.4V0H83.4v38H0v60h280V38z M113.4,30h53.2v8h-53.2V30z"/>
	<path d="M253.4,214.3L259,128H21l19,290h114.2c-14.9-21.1-23.6-46.7-23.6-74.4C130.6,274.4,185.1,217.8,253.4,214.3z"/>
	<path d="M260,244.1c-54.8,0-99.4,44.6-99.4,99.4S205.2,443,260,443s99.4-44.6,99.4-99.4S314.8,244.1,260,244.1z M314.2,376.5
		L293,397.7l-33-33l-33,33l-21.2-21.2l33-33l-33-33l21.2-21.2l33,33l33-33l21.2,21.2l-33,33L314.2,376.5z"/>
</g>
</svg>
