<?xml version="1.0" encoding="utf-8"?>
<!-- Generator: Adobe Illustrator 23.0.1, SVG Export Plug-In . SVG Version: 6.00 Build 0)  -->
<svg version="1.1" id="Layer_1" xmlns="http://www.w3.org/2000/svg" xmlns:xlink="http://www.w3.org/1999/xlink" x="0px" y="0px"
	 viewBox="0 0 251 304" style="enable-background:new 0 0 251 304;" xml:space="preserve">
<style type="text/css">
	.st0{fill:none;}
	.st1{fill:#1A1A1A;}
</style>
<g>
	
		<sodipodi:namedview  bordercolor="#666666" borderopacity="1.0" gridtolerance="10.0" guidetolerance="10.0" id="base" objecttolerance="10.0" pagecolor="#ffffff">
		</sodipodi:namedview>
	<g>
		<ellipse class="st0" cx="126.4" cy="53.2" rx="10.9" ry="10.4"/>
		
			<ellipse transform="matrix(0.9732 -0.2298 0.2298 0.9732 -46.6693 46.9775)" class="st0" cx="178.4" cy="223.9" rx="23.3" ry="23.3"/>
		<g>
			<path class="st1" d="M233,187.6c-2.1-9.7-5.7-17.9-8.4-19.3c-1.7-0.9-2.3-0.6-3.7,1.7c-2.5,4.1-6,7.3-12.8,11.6
				c-7.1,4.6-11.8,9.3-13.8,14.1c0,0,0.1,0,0.1,0.1c4,2.9,7.9,5.7,10.8,9.9c2.7,4,4.3,8.7,5.3,13.5c5.2-3,8.8-2.3,12.4,1.7l3.2,3.5
				l2.1-2.3c3.7-4.1,5.1-8.2,5.8-17.4C234.6,197.5,234.4,193.7,233,187.6z"/>
			<g>
				<path class="st1" d="M153.8,244.5L153.8,244.5c-2.6-3.2-5.1-6.7-6.2-10.7v-0.1c-1.6,0.2-3.1,0.4-4.4,0.4
					c-4.9,0-9.4-1.9-10.2-4.2c-0.4-1.1-0.4-14.2,0-29.2c0.3-14.9,0.9-42.7,1.2-61.6c0.3-19,0.7-34.7,0.9-35
					c0.2-0.3,10.5-0.5,22.9-0.3c25.7,0.3,24.4,0.7,24.2-8.6l-0.1-5.5c-15.4-1.1-31.1,0.9-46.5-1.1c-0.3-0.3-0.6-3.9-0.7-7.9
					l-0.1-6.7c8.5-3.1,14.5-10.9,14.5-20.1c0-11.9-10-21.5-22.4-21.5c-12.4,0-22.4,9.6-22.4,21.5c0,9,5.7,16.6,13.8,19.8
					c0.1,1.4,0.3,3.5,0.3,6.6v9.1L96.7,89c-17.2-0.2-22.2,0-23.5,1c-2,1.7-2.4,13.1-0.4,13.1l44.8-0.1c0.1,10.7,0.2,21.4,0.1,32.1
					c-0.5,22.1-0.9,44.2-1.1,66.2c-0.1,12-0.5,23.4-1,25.5c-1.8,7.8-6.7,8.8-21.8,4.7c-15.7-4.3-35.3-13.9-38.6-18.9
					c-2.6-4-3-7.4-1.1-9.5c0.9-1,2.3-1.7,3.1-1.4c0.9,0.3,1.7-0.4,2.3-1.8c1.9-5-4.4-12.5-16.9-19.9c-3-1.8-8-5.7-11-8.6
					c-3.2-3.1-6-5-6.6-4.6c-2,1.3-6.1,10.6-7.4,16.7c-2.5,12.3,0.7,30.4,6.7,37.5c3.2,3.8,4.9,3.8,5.7,0.1c1.3-6.5,9.4-4.6,18.2,4.2
					c7,7,20.2,17.1,26,19.9c2.2,1,5.4,2.7,7,3.8c1.7,1,6.6,3.1,11,4.6c9.2,3.2,20,8.7,24.3,12.6c1.6,1.5,4.1,3.4,5.4,4.3
					c2.4,1.6,2.6,1.5,4.2-1c3.4-5.2,9.3-9.7,18.1-14c5-2.4,9.8-4.4,10.7-4.4c0.5,0,2.1-0.5,4.3-1.4c-1-0.9-2-1.7-3-2.5
					C155.3,246.4,154.6,245.4,153.8,244.5z M126.4,63.6c-6,0-10.9-4.7-10.9-10.4s4.9-10.4,10.9-10.4s10.9,4.7,10.9,10.4
					C137.3,59,132.4,63.6,126.4,63.6z"/>
				<path class="st1" d="M220.8,280.9L199,248.2c6.9-5.9,11.3-14.6,11.3-24.4c0-17.6-14.3-31.9-31.9-31.9
					c-17.6,0-31.9,14.3-31.9,31.9s14.3,31.9,31.9,31.9c4.4,0,8.6-0.9,12.4-2.5l22.1,33c1.5,2.3,4.6,3.1,6.8,1.6
					C221.9,286.4,222.4,283.3,220.8,280.9z M178.4,247.2c-12.9,0-23.3-10.4-23.3-23.3c0-12.9,10.4-23.3,23.3-23.3
					c12.9,0,23.3,10.4,23.3,23.3C201.7,236.7,191.3,247.2,178.4,247.2z"/>
			</g>
		</g>
	</g>
</g>
</svg>
