<?xml version="1.0" encoding="utf-8"?>
<!-- Generator: Adobe Illustrator 23.0.1, SVG Export Plug-In . SVG Version: 6.00 Build 0)  -->
<svg version="1.1" id="Capa_1" xmlns="http://www.w3.org/2000/svg" xmlns:xlink="http://www.w3.org/1999/xlink" x="0px" y="0px"
	 viewBox="0 0 57 40" style="enable-background:new 0 0 57 40;" xml:space="preserve">
<path d="M56.6,19.2l-27-19c-0.3-0.2-0.7-0.2-1-0.1C28.2,0.3,28,0.6,28,1v17.8L1.6,0.2C1.3,0,0.9,0,0.5,0.1C0.2,0.3,0,0.6,0,1v38
	c0,0.4,0.2,0.7,0.5,0.9C0.7,39.9,0.8,40,1,40c0.2,0,0.4-0.1,0.6-0.2L28,21.2V39c0,0.4,0.2,0.7,0.5,0.9C28.7,40,28.8,40,29,40
	c0.2,0,0.4-0.1,0.6-0.2l27-19c0.3-0.2,0.4-0.5,0.4-0.8S56.8,19.4,56.6,19.2z"/>
</svg>
