<?xml version="1.0" encoding="utf-8"?>
<!-- Generator: Adobe Illustrator 23.0.1, SVG Export Plug-In . SVG Version: 6.00 Build 0)  -->
<svg version="1.1" id="Layer_1" xmlns="http://www.w3.org/2000/svg" xmlns:xlink="http://www.w3.org/1999/xlink" x="0px" y="0px"
	 viewBox="0 0 490 322.5" style="enable-background:new 0 0 490 322.5;" xml:space="preserve">
<g>
	<g>
		<path d="M486.6,150C422.7,53.3,336.9,0,245,0S67.3,53.3,3.4,150c-4.5,6.8-4.5,15.7,0,22.5c63.9,96.7,149.7,150,241.6,150
			s177.7-53.3,241.6-150C491.1,165.7,491.1,156.9,486.6,150L486.6,150z M245,281.7c-74.2,0-144.8-42.6-199.9-120.4
			C100.1,83.5,170.7,40.9,245,40.9c74.2,0,144.8,42.6,199.9,120.4C389.8,239.1,319.3,281.7,245,281.7z"/>
		<path d="M245,53.8c-59.3,0-107.5,48.2-107.5,107.5S185.7,268.8,245,268.8s107.5-48.2,107.5-107.5S304.3,53.8,245,53.8z M245,229.3
			c-36.8,0-66.8-30.5-66.8-68s30-68,66.8-68s66.8,30.5,66.8,68S281.8,229.3,245,229.3L245,229.3z"/>
	</g>
</g>
</svg>
